<svg xmlns="http://www.w3.org/2000/svg" viewBox="22 21 56 58">
  <path fill="#000" fill-rule="evenodd" d="M35.7741641 65.4536607l-6.4111059 3.4813978c-2.8076935-3.0583188-4.8586179-6.6686299-6.0733234-10.5344223l6.2180605-3.8099675c-.6698708-2.986647-.6918153-6.1238377-.0049559-9.184374l-6.2182284-3.8100703C23.8880183 39.6843148 24.707359 37.8081392 25.7512887 36c1.0439297-1.8081392 2.259075-3.4557969 3.6131336-4.9343177l6.4087319 3.4801086c2.3070725-2.1251059 5.0349315-3.6746967 7.9563791-4.5878951l.1904984-7.2899821c3.9552273-.8809304 8.1073106-.9099333 12.1597391-.0075588l.190574 7.2928795c1.445166.4535088 2.863311 1.0713729 4.2296552 1.8602321 1.3663442.7888592 2.6105027 1.7080767 3.7258359 2.7328728l6.4111059-3.4813978c2.8076935 3.0583188 4.8586179 6.6686299 6.0733234 10.5344223l-6.2180605 3.8099675c.6698708 2.986647.6918153 6.1238377.0049559 9.184374l6.2182284 3.8100703C76.1119817 60.3156852 75.292641 62.1918608 74.2487113 64c-1.0439297 1.8081392-2.259075 3.4557969-3.6131336 4.9343177l-6.4087319-3.4801086c-2.3070725 2.1251059-5.0349315 3.6746967-7.9563791 4.5878951l-.1904984 7.2899821c-3.9552273.8809304-8.1073106.9099333-12.1597391.0075588l-.190574-7.2928795c-1.445166-.4535088-2.863311-1.0713729-4.2296552-1.8602321-1.3663442-.7888592-2.6105027-1.7080767-3.7258359-2.7328728zM44 60.3923048C49.7395115 63.7060133 57.0785963 61.7395115 60.3923048 56 63.7060133 50.2604885 61.7395115 42.9214037 56 39.6076952 50.2604885 36.2939867 42.9214037 38.2604885 39.6076952 44 36.2939867 49.7395115 38.2604885 57.0785963 44 60.3923048z"/>
</svg>
