<svg width="128" height="128" viewBox="0 0 128 128" fill="none" xmlns="http://www.w3.org/2000/svg">
<path d="M120 64C120 94.9279 94.9279 120 64 120C33.0721 120 8 94.9279 8 64C8 33.0721 33.0721 8 64 8C94.9279 8 120 33.0721 120 64Z" fill="#F0F0F0"/>
<path d="M81.6754 55.3287C81.6754 55.0582 75.1528 44.0036 73.294 42.3133C73.294 42.4485 73.1588 42.4485 73.1588 42.4485C72.3139 44.8488 71.5366 47.2152 70.5227 49.4464C70.5227 49.4464 70.5227 49.6154 70.3875 49.6154C69.813 52.9623 68.5625 55.633 66.501 58.1346C66.3658 58.4051 66.3658 58.7093 66.2306 58.9798C67.7514 61.0758 69.4074 63.0365 71.638 64.4226C73.5643 65.8424 75.7949 67.2285 77.924 68.4793C81.8106 69.7302 85.4605 71.5557 88.9415 73.3474C91.4424 74.7673 89.8202 78.1141 87.2855 77.8437C81.6754 76.9985 76.6736 75.0377 71.4014 73.3474C71.5366 73.5164 71.5366 73.6517 71.6718 73.7869C73.7671 75.3082 93.4364 91.9408 91.7804 92.2113C84.2101 93.4621 55.6862 70.3049 50.0085 62.3266C48.6229 60.5011 48.0145 58.2698 47.0345 56.2077C46.122 54.5174 46.122 52.5228 45.5136 55.4977C45.1081 58.2698 34.9017 70.6767 35.6114 72.6713C36.4563 74.7673 42.6072 88.0531 40.1063 85.5177C37.1322 82.6103 32.2656 80.2101 28.2101 77.3028C27.0948 77.607 25.8444 77.4718 24.8305 76.9985C24.9657 81.3595 27.4666 93.5974 24.8305 92.0761C22.8703 90.9605 14.2185 84.4021 11.1769 82.7456C18.8486 104.517 39.6331 120 64.0001 120C88.1642 120 108.476 104.922 116.485 83.5907C104.015 76.728 81.4388 63.0365 81.6754 55.3287Z" fill="black"/>
<path d="M98.4719 57.019C97.9312 56.7486 95.4303 56.7486 95.0923 57.1542C97.9312 60.2306 101.108 63.1717 103.879 65.9776C108.611 70.4063 113.106 74.9025 118.006 79.2297C118.851 76.1871 119.392 73.0431 119.73 69.8992C115.37 67.0932 111.855 62.3266 107.36 59.6559C104.454 57.9994 101.345 58.7093 98.4719 57.019Z" fill="black"/>
<path d="M20.3693 62.1576C22.2281 60.0616 29.0211 59.6559 30.9813 57.5599C34.3609 53.9427 43.9928 43.6994 43.9928 43.6994C43.9928 43.6994 49.7381 50.8663 51.5293 53.2327C53.4894 52.3876 55.2806 51.441 57.1394 50.4606C60.8908 44.5783 73.3277 32.1376 73.3277 32.1376L87.86 48.3308C88.3331 48.3308 97.4919 44.2741 97.4919 44.2741C97.4919 44.2741 108.982 57.019 112.734 60.3658C115.1 62.4618 117.499 64.5578 120 66.5524C120 65.7072 120 64.8621 120 64.0169C120 33.1518 94.991 8 64.0338 8C33.1442 8 8 33.1518 8 64.0169C8 67.9384 8.40555 71.7247 9.11527 75.342C12.6976 72.4009 19.3217 61.8871 20.3693 62.1576Z" fill="black"/>
</svg>
