<svg width="128" height="128" viewBox="0 0 128 128" fill="none" xmlns="http://www.w3.org/2000/svg">
<rect x="16" y="16" width="96" height="96" rx="16" fill="#69D2E7"/>
<path d="M66.2273 32H60.7727C57.0015 32 55.1159 32 53.9443 33.1716C52.7727 34.3431 52.7727 36.2288 52.7727 40V45C52.7727 48.7712 52.7727 50.6568 51.6012 51.8284C50.4296 53 48.544 53 44.7727 53H42C38.2288 53 36.3431 53 35.1716 54.1716C34 55.3431 34 57.2287 34 61V66C34 69.7713 34 71.6569 35.1716 72.8285C36.3431 74 38.2288 74 42 74H44.7727C48.544 74 50.4296 74 51.6012 75.1716C52.7727 76.3432 52.7727 78.2288 52.7727 82V87C52.7727 90.7712 52.7727 92.6569 53.9443 93.8284C55.1159 95 57.0015 95 60.7727 95H66.2273C69.9985 95 71.8841 95 73.0557 93.8284C74.2273 92.6569 74.2273 90.7712 74.2273 87V82C74.2273 78.2288 74.2273 76.3432 75.3988 75.1716C76.5704 74 78.456 74 82.2273 74H85C88.7712 74 90.6569 74 91.8284 72.8285C93 71.6569 93 69.7713 93 66V61C93 57.2287 93 55.3431 91.8284 54.1716C90.6569 53 88.7712 53 85 53H82.2273C78.456 53 76.5704 53 75.3988 51.8284C74.2273 50.6568 74.2273 48.7712 74.2273 45V40C74.2273 36.2288 74.2273 34.3431 73.0557 33.1716C71.8841 32 69.9985 32 66.2273 32Z" fill="white"/>
</svg>
